<svg width="17" height="17" viewBox="0 0 17 17" fill="none" xmlns="http://www.w3.org/2000/svg">
<g clip-path="url(#clip0_4109_7038)">
<path d="M11.3334 11.3404L11.3405 11.3326" stroke="#21272A" stroke-width="1.5" stroke-linecap="round" stroke-linejoin="round"/>
<path d="M4.25 11.3404L4.25708 11.3326" stroke="#21272A" stroke-width="1.5" stroke-linecap="round" stroke-linejoin="round"/>
<path d="M14.1667 15.5834V10.625V5.66669V15.5834ZM14.1667 5.66669H12.75V1.41669H15.5833V5.66669H14.1667Z" stroke="#21272A" stroke-width="1.5" stroke-linecap="round" stroke-linejoin="round"/>
<path d="M2.83337 14.1667V15.5834H4.25004V14.1667H2.83337Z" fill="#21272A" stroke="#21272A" stroke-width="1.5" stroke-linecap="round" stroke-linejoin="round"/>
<path d="M9.91663 14.1667V15.5834H11.3333V14.1667H9.91663Z" fill="#21272A" stroke="#21272A" stroke-width="1.5" stroke-linecap="round" stroke-linejoin="round"/>
<path d="M11.3333 14.1667H1.84163C1.60691 14.1667 1.41663 13.9764 1.41663 13.7417V8.925C1.41663 8.69026 1.60691 8.5 1.84163 8.5H11.3333" stroke="#21272A" stroke-width="1.5" stroke-linecap="round" stroke-linejoin="round"/>
<path d="M9.91663 1.41669H4.24996C2.68515 1.41669 1.41663 2.68521 1.41663 4.25002V5.66669M9.91663 5.66669H4.24996H9.91663Z" stroke="#21272A" stroke-width="1.5" stroke-linecap="round" stroke-linejoin="round"/>
</g>
<defs>
<clipPath id="clip0_4109_7038">
<rect width="17" height="17" fill="white"/>
</clipPath>
</defs>
</svg>
