<svg width="42" height="44" viewBox="0 0 42 44" fill="none" xmlns="http://www.w3.org/2000/svg">
<path d="M33.25 5.5H8.75C6.817 5.5 5.25 7.14162 5.25 9.16667V34.8333C5.25 36.8584 6.817 38.5 8.75 38.5H33.25C35.183 38.5 36.75 36.8584 36.75 34.8333V9.16667C36.75 7.14162 35.183 5.5 33.25 5.5Z" stroke="#21272A" stroke-width="2" stroke-linecap="round" stroke-linejoin="round"/>
<path d="M14.875 18.3334C16.3247 18.3334 17.5 17.1022 17.5 15.5834C17.5 14.0646 16.3247 12.8334 14.875 12.8334C13.4253 12.8334 12.25 14.0646 12.25 15.5834C12.25 17.1022 13.4253 18.3334 14.875 18.3334Z" stroke="#21272A" stroke-width="2" stroke-linecap="round" stroke-linejoin="round"/>
<path d="M36.75 27.5L28 18.3334L8.75 38.5" stroke="#21272A" stroke-width="2" stroke-linecap="round" stroke-linejoin="round"/>
</svg>
