<svg width="18" height="17" viewBox="0 0 18 17" fill="none" xmlns="http://www.w3.org/2000/svg">
<path d="M9 7.4375C9.62132 7.4375 10.125 6.9618 10.125 6.375C10.125 5.7882 9.62132 5.3125 9 5.3125C8.37868 5.3125 7.875 5.7882 7.875 6.375C7.875 6.9618 8.37868 7.4375 9 7.4375Z" fill="#00C3D0"/>
<path d="M9 1.0625C5.89852 1.0625 3.375 3.34189 3.375 6.14258C3.375 7.47635 4.01871 9.25006 5.2882 11.4146C6.30773 13.1524 7.48723 14.7239 8.1007 15.5059C8.20437 15.6395 8.33991 15.7481 8.49633 15.823C8.65276 15.8979 8.82567 15.9369 9.00105 15.9369C9.17644 15.9369 9.34935 15.8979 9.50578 15.823C9.6622 15.7481 9.79774 15.6395 9.90141 15.5059C10.5138 14.7239 11.6944 13.1524 12.7139 11.4146C13.9813 9.25072 14.625 7.47701 14.625 6.14258C14.625 3.34189 12.1015 1.0625 9 1.0625ZM9 8.5C8.55499 8.5 8.11998 8.37537 7.74997 8.14187C7.37996 7.90837 7.09157 7.5765 6.92127 7.1882C6.75097 6.79991 6.70642 6.37264 6.79323 5.96043C6.88005 5.54822 7.09434 5.16958 7.40901 4.8724C7.72368 4.57521 8.12459 4.37282 8.56105 4.29083C8.9975 4.20884 9.4499 4.25092 9.86104 4.41176C10.2722 4.57259 10.6236 4.84496 10.8708 5.19441C11.118 5.54387 11.25 5.95471 11.25 6.375C11.2493 6.9384 11.0121 7.47854 10.5903 7.87692C10.1685 8.2753 9.59654 8.49938 9 8.5Z" fill="#00C3D0"/>
</svg>
