<svg width="35" height="34" viewBox="0 0 35 34" fill="none" xmlns="http://www.w3.org/2000/svg">
<rect width="35" height="34" rx="17" fill="#F2F4F8"/>
<path d="M14.034 17.07C14.1569 17.0175 14.2892 16.9903 14.4228 16.9898C14.5565 16.9893 14.6889 17.0156 14.8122 17.0672C14.9355 17.1188 15.0473 17.1945 15.1408 17.29C15.2344 17.3855 15.3078 17.4988 15.3568 17.6231C15.4058 17.7475 15.4294 17.8804 15.4262 18.014C15.4229 18.1477 15.3929 18.2793 15.3379 18.4011C15.2829 18.523 15.2041 18.6325 15.106 18.7234C15.008 18.8142 14.8927 18.8845 14.767 18.93C14.0985 19.1934 13.5248 19.6519 13.1205 20.2458C12.7162 20.8397 12.5 21.5415 12.5 22.26V24C12.5 24.2652 12.6054 24.5196 12.7929 24.7071C12.9804 24.8946 13.2348 25 13.5 25H21.5C21.7652 25 22.0196 24.8946 22.2071 24.7071C22.3946 24.5196 22.5 24.2652 22.5 24V22.353C22.5001 21.6115 22.2749 20.8874 21.8541 20.2768C21.4334 19.6662 20.837 19.1979 20.144 18.934C20.0175 18.8901 19.9012 18.8213 19.8018 18.7316C19.7024 18.6419 19.6221 18.5332 19.5655 18.4119C19.509 18.2905 19.4773 18.1591 19.4725 18.0253C19.4677 17.8916 19.4897 17.7582 19.5374 17.6331C19.5851 17.508 19.6574 17.3938 19.75 17.2972C19.8427 17.2006 19.9538 17.1235 20.0767 17.0706C20.1997 17.0177 20.332 16.9901 20.4659 16.9893C20.5998 16.9885 20.7324 17.0146 20.856 17.066C21.9276 17.4742 22.8499 18.1983 23.5006 19.1425C24.1514 20.0867 24.4999 21.2063 24.5 22.353V24C24.5 24.7956 24.1839 25.5587 23.6213 26.1213C23.0587 26.6839 22.2956 27 21.5 27H13.5C12.7044 27 11.9413 26.6839 11.3787 26.1213C10.8161 25.5587 10.5 24.7956 10.5 24V22.26C10.5001 21.1402 10.8373 20.0463 11.4676 19.1206C12.0978 18.195 12.9921 17.4805 14.034 17.07ZM17.5 7C18.5609 7 19.5783 7.42143 20.3284 8.17157C21.0786 8.92172 21.5 9.93913 21.5 11V13C21.5 14.0609 21.0786 15.0783 20.3284 15.8284C19.5783 16.5786 18.5609 17 17.5 17C16.4391 17 15.4217 16.5786 14.6716 15.8284C13.9214 15.0783 13.5 14.0609 13.5 13V11C13.5 9.93913 13.9214 8.92172 14.6716 8.17157C15.4217 7.42143 16.4391 7 17.5 7V7ZM17.5 9C16.9696 9 16.4609 9.21071 16.0858 9.58579C15.7107 9.96086 15.5 10.4696 15.5 11V13C15.5 13.5304 15.7107 14.0391 16.0858 14.4142C16.4609 14.7893 16.9696 15 17.5 15C18.0304 15 18.5391 14.7893 18.9142 14.4142C19.2893 14.0391 19.5 13.5304 19.5 13V11C19.5 10.4696 19.2893 9.96086 18.9142 9.58579C18.5391 9.21071 18.0304 9 17.5 9Z" fill="#C1C7CD"/>
</svg>
